<svg width="1920" height="381" viewBox="0 0 1920 381" fill="none" xmlns="http://www.w3.org/2000/svg">
<path d="M152.227 134.129C152.227 120.844 141.433 109.773 127.871 109.773H100.47V82.3719C100.47 69.0867 89.6756 58.0156 76.1136 58.0156C62.8283 58.0156 51.7573 68.8099 51.7573 82.3719V109.773H24.3563C11.071 109.773 0 120.567 0 134.129C0 147.414 10.7943 158.486 24.3563 158.486H51.7573V185.886C51.7573 199.172 62.5515 210.243 76.1136 210.243C89.3989 210.243 100.47 199.449 100.47 185.886V158.486H127.871C141.433 158.486 152.227 147.414 152.227 134.129ZM88.2918 134.129C88.2918 140.772 83.0329 146.031 76.3903 146.031C69.7477 146.031 64.4889 140.772 64.4889 134.129C64.4889 127.487 69.7477 122.228 76.3903 122.228C82.7562 122.228 88.2918 127.487 88.2918 134.129Z" stroke="#A1C517" stroke-width="0.6657" stroke-miterlimit="10"/>
<path d="M152.226 77.1133C152.226 66.5958 143.646 58.0156 133.129 58.0156C122.611 58.0156 114.031 66.5958 114.031 77.1133V96.2108H133.129C143.646 96.2108 152.226 87.6308 152.226 77.1133Z" stroke="#A1C517" stroke-width="0.6657" stroke-miterlimit="10"/>
<path d="M0.277344 191.146C0.277344 201.664 8.85749 210.244 19.375 210.244C29.8925 210.244 38.4727 201.664 38.4727 191.146V172.049H19.375C8.85749 172.049 0.277344 180.352 0.277344 191.146Z" stroke="#A1C517" stroke-width="0.6657" stroke-miterlimit="10"/>
<path d="M133.129 172.049H114.031V191.146C114.031 201.664 122.611 210.244 133.129 210.244C143.646 210.244 152.226 201.664 152.226 191.146C152.226 180.629 143.646 172.049 133.129 172.049Z" stroke="#A1C517" stroke-width="0.6657" stroke-miterlimit="10"/>
<path d="M19.375 96.2108H38.4727V77.1133C38.4727 66.5958 29.8925 58.0156 19.375 58.0156C8.85749 58.0156 0.277344 66.5958 0.277344 77.1133C0.277344 87.6308 8.85749 96.2108 19.375 96.2108Z" stroke="#A1C517" stroke-width="0.6657" stroke-miterlimit="10"/>
<path d="M313.311 77.1137C313.311 63.8284 302.517 52.7572 288.955 52.7572H261.554V25.3564C261.554 12.0711 250.76 1 237.198 1C223.912 1 212.841 11.7943 212.841 25.3564V52.7572H185.44C172.155 52.7572 161.084 63.5516 161.084 77.1137C161.084 90.399 171.878 101.47 185.44 101.47H212.841V128.871C212.841 142.156 223.636 153.227 237.198 153.227C250.483 153.227 261.554 142.433 261.554 128.871V101.47H288.955C302.517 101.47 313.311 90.6757 313.311 77.1137ZM249.376 77.1137C249.376 83.7563 244.117 89.015 237.474 89.015C230.832 89.015 225.573 83.7563 225.573 77.1137C225.573 70.471 230.832 65.2121 237.474 65.2121C244.117 65.2121 249.376 70.7478 249.376 77.1137Z" stroke="#A1C517" stroke-width="0.6657" stroke-miterlimit="10"/>
<path d="M313.312 20.375C313.312 9.85749 304.732 1.27734 294.215 1.27734C283.697 1.27734 275.117 9.85749 275.117 20.375V39.4725H294.215C304.732 39.4725 313.312 30.8925 313.312 20.375Z" stroke="#A1C517" stroke-width="0.6657" stroke-miterlimit="10"/>
<path d="M161.361 134.129C161.361 144.646 169.941 153.227 180.459 153.227C190.976 153.227 199.556 144.646 199.556 134.129V115.031H180.459C169.941 115.031 161.361 123.611 161.361 134.129Z" stroke="#A1C517" stroke-width="0.6657" stroke-miterlimit="10"/>
<path d="M294.215 115.031H275.117V134.129C275.117 144.646 283.697 153.227 294.215 153.227C304.732 153.227 313.312 144.646 313.312 134.129C313.312 123.611 304.732 115.031 294.215 115.031Z" stroke="#A1C517" stroke-width="0.6657" stroke-miterlimit="10"/>
<path d="M180.459 39.4725H199.556V20.375C199.556 9.85749 190.976 1.27734 180.459 1.27734C169.941 1.27734 161.361 9.85749 161.361 20.375C161.361 30.8925 169.941 39.4725 180.459 39.4725Z" stroke="#A1C517" stroke-width="0.6657" stroke-miterlimit="10"/>
<path d="M471.352 134.129C471.352 120.844 460.558 109.773 446.996 109.773H419.595V82.3719C419.595 69.0867 408.801 58.0156 395.239 58.0156C381.953 58.0156 370.882 68.8099 370.882 82.3719V109.773H343.481C330.196 109.773 319.125 120.567 319.125 134.129C319.125 147.414 329.919 158.486 343.481 158.486H370.882V185.886C370.882 199.172 381.677 210.243 395.239 210.243C408.524 210.243 419.595 199.449 419.595 185.886V158.486H446.996C460.558 158.486 471.352 147.414 471.352 134.129ZM407.417 134.129C407.417 140.772 402.158 146.031 395.515 146.031C388.873 146.031 383.614 140.772 383.614 134.129C383.614 127.487 388.873 122.228 395.515 122.228C402.158 122.228 407.417 127.487 407.417 134.129Z" stroke="#A1C517" stroke-width="0.6657" stroke-miterlimit="10"/>
<path d="M471.352 77.1133C471.352 66.5958 462.771 58.0156 452.254 58.0156C441.736 58.0156 433.156 66.5958 433.156 77.1133V96.2108H452.254C463.048 96.2108 471.352 87.6308 471.352 77.1133Z" stroke="#A1C517" stroke-width="0.6657" stroke-miterlimit="10"/>
<path d="M319.4 191.146C319.4 201.664 327.98 210.244 338.498 210.244C349.015 210.244 357.596 201.664 357.596 191.146V172.049H338.498C327.98 172.049 319.4 180.352 319.4 191.146Z" stroke="#A1C517" stroke-width="0.6657" stroke-miterlimit="10"/>
<path d="M452.531 172.049H433.434V191.146C433.434 201.664 442.014 210.244 452.531 210.244C463.049 210.244 471.629 201.664 471.629 191.146C471.629 180.629 463.049 172.049 452.531 172.049Z" stroke="#A1C517" stroke-width="0.6657" stroke-miterlimit="10"/>
<path d="M338.498 96.2108H357.596V77.1133C357.596 66.5958 349.015 58.0156 338.498 58.0156C327.98 58.0156 319.4 66.5958 319.4 77.1133C319.4 87.6308 327.98 96.2108 338.498 96.2108Z" stroke="#A1C517" stroke-width="0.6657" stroke-miterlimit="10"/>
<path d="M632.712 77.1137C632.712 63.8284 621.917 52.7572 608.355 52.7572H580.954V25.3564C580.954 12.0711 570.16 1 556.598 1C543.313 1 532.242 11.7943 532.242 25.3564V52.7572H504.841C491.556 52.7572 480.484 63.5516 480.484 77.1137C480.484 90.399 491.279 101.47 504.841 101.47H532.242V128.871C532.242 142.156 543.036 153.227 556.598 153.227C569.883 153.227 580.954 142.433 580.954 128.871V101.47H608.355C621.641 101.47 632.712 90.6757 632.712 77.1137ZM568.499 77.1137C568.499 83.7563 563.241 89.015 556.598 89.015C549.955 89.015 544.697 83.7563 544.697 77.1137C544.697 70.471 549.955 65.2121 556.598 65.2121C563.241 65.2121 568.499 70.7478 568.499 77.1137Z" stroke="#A1C517" stroke-width="0.6657" stroke-miterlimit="10"/>
<path d="M632.711 20.375C632.711 9.85749 624.13 1.27734 613.613 1.27734C603.095 1.27734 594.516 9.85749 594.516 20.375V39.4725H613.613C624.13 39.4725 632.711 30.8925 632.711 20.375Z" stroke="#A1C517" stroke-width="0.6657" stroke-miterlimit="10"/>
<path d="M480.762 134.129C480.762 144.646 489.342 153.227 499.859 153.227C510.377 153.227 518.957 144.646 518.957 134.129V115.031H499.859C489.065 115.031 480.762 123.611 480.762 134.129Z" stroke="#A1C517" stroke-width="0.6657" stroke-miterlimit="10"/>
<path d="M613.613 115.031H594.516V134.129C594.516 144.646 603.095 153.227 613.613 153.227C624.13 153.227 632.711 144.646 632.711 134.129C632.711 123.611 624.13 115.031 613.613 115.031Z" stroke="#A1C517" stroke-width="0.6657" stroke-miterlimit="10"/>
<path d="M499.859 39.4725H518.957V20.375C518.957 9.85749 510.377 1.27734 499.859 1.27734C489.342 1.27734 480.762 9.85749 480.762 20.375C480.762 30.8925 489.065 39.4725 499.859 39.4725Z" stroke="#A1C517" stroke-width="0.6657" stroke-miterlimit="10"/>
<path d="M791.858 134.129C791.858 120.844 781.064 109.773 767.502 109.773H740.101V82.3719C740.101 69.0867 729.307 58.0156 715.744 58.0156C702.459 58.0156 691.388 68.8099 691.388 82.3719V109.773H663.987C650.702 109.773 639.631 120.567 639.631 134.129C639.631 147.414 650.425 158.486 663.987 158.486H691.388V185.886C691.388 199.172 702.182 210.243 715.744 210.243C729.03 210.243 740.101 199.449 740.101 185.886V158.486H767.502C780.787 158.486 791.858 147.414 791.858 134.129ZM727.646 134.129C727.646 140.772 722.387 146.031 715.744 146.031C709.102 146.031 703.843 140.772 703.843 134.129C703.843 127.487 709.102 122.228 715.744 122.228C722.387 122.228 727.646 127.487 727.646 134.129Z" stroke="#A1C517" stroke-width="0.6657" stroke-miterlimit="10"/>
<path d="M791.859 77.1133C791.859 66.5958 783.279 58.0156 772.761 58.0156C762.244 58.0156 753.664 66.5958 753.664 77.1133V96.2108H772.761C783.279 96.2108 791.859 87.6308 791.859 77.1133Z" stroke="#A1C517" stroke-width="0.6657" stroke-miterlimit="10"/>
<path d="M639.631 191.146C639.631 201.664 648.211 210.244 658.729 210.244C669.246 210.244 677.826 201.664 677.826 191.146V172.049H658.729C648.211 172.049 639.631 180.352 639.631 191.146Z" stroke="#A1C517" stroke-width="0.6657" stroke-miterlimit="10"/>
<path d="M772.761 172.049H753.664V191.146C753.664 201.664 762.244 210.244 772.761 210.244C783.279 210.244 791.859 201.664 791.859 191.146C791.859 180.629 783.279 172.049 772.761 172.049Z" stroke="#A1C517" stroke-width="0.6657" stroke-miterlimit="10"/>
<path d="M658.729 96.2108H677.826V77.1133C677.826 66.5958 669.246 58.0156 658.729 58.0156C648.211 58.0156 639.631 66.5958 639.631 77.1133C639.631 87.6308 648.211 96.2108 658.729 96.2108Z" stroke="#A1C517" stroke-width="0.6657" stroke-miterlimit="10"/>
<path d="M952.942 77.1137C952.942 63.8284 942.148 52.7572 928.586 52.7572H901.185V25.3564C901.185 12.0711 890.391 1 876.829 1C863.267 1 852.472 11.7943 852.472 25.3564V52.7572H825.071C811.786 52.7572 800.715 63.5516 800.715 77.1137C800.715 90.399 811.509 101.47 825.071 101.47H852.472V128.871C852.472 142.156 863.267 153.227 876.829 153.227C890.391 153.227 901.185 142.433 901.185 128.871V101.47H928.586C941.871 101.47 952.942 90.6757 952.942 77.1137ZM888.73 77.1137C888.73 83.7563 883.471 89.015 876.829 89.015C870.186 89.015 864.927 83.7563 864.927 77.1137C864.927 70.471 870.186 65.2121 876.829 65.2121C883.471 65.2121 888.73 70.7478 888.73 77.1137Z" stroke="#A1C517" stroke-width="0.6657" stroke-miterlimit="10"/>
<path d="M952.941 20.375C952.941 9.85749 944.361 1.27734 933.844 1.27734C923.326 1.27734 914.746 9.85749 914.746 20.375V39.4725H933.844C944.361 39.4725 952.941 30.8925 952.941 20.375Z" stroke="#A1C517" stroke-width="0.6657" stroke-miterlimit="10"/>
<path d="M800.992 134.129C800.992 144.646 809.572 153.227 820.09 153.227C830.607 153.227 839.187 144.646 839.187 134.129V115.031H820.09C809.572 115.031 800.992 123.611 800.992 134.129Z" stroke="#A1C517" stroke-width="0.6657" stroke-miterlimit="10"/>
<path d="M933.844 115.031H914.746V134.129C914.746 144.646 923.326 153.227 933.844 153.227C944.361 153.227 952.941 144.646 952.941 134.129C952.941 123.611 944.361 115.031 933.844 115.031Z" stroke="#A1C517" stroke-width="0.6657" stroke-miterlimit="10"/>
<path d="M820.09 39.4725H839.187V20.375C839.187 9.85749 830.607 1.27734 820.09 1.27734C809.572 1.27734 800.992 9.85749 800.992 20.375C800.992 30.8925 809.572 39.4725 820.09 39.4725Z" stroke="#A1C517" stroke-width="0.6657" stroke-miterlimit="10"/>
<path d="M1119.56 134.129C1119.56 120.844 1108.77 109.773 1095.21 109.773H1067.81V82.3719C1067.81 69.0867 1057.01 58.0156 1043.45 58.0156C1029.89 58.0156 1019.09 68.8099 1019.09 82.3719V109.773H991.692C978.407 109.773 967.336 120.567 967.336 134.129C967.336 147.414 978.13 158.486 991.692 158.486H1019.09V185.886C1019.09 199.172 1029.89 210.243 1043.45 210.243C1057.01 210.243 1067.81 199.449 1067.81 185.886V158.486H1095.21C1108.49 158.486 1119.56 147.414 1119.56 134.129ZM1055.35 134.129C1055.35 140.772 1050.09 146.031 1043.45 146.031C1036.81 146.031 1031.55 140.772 1031.55 134.129C1031.55 127.487 1036.81 122.228 1043.45 122.228C1050.09 122.228 1055.35 127.487 1055.35 134.129Z" stroke="#A1C517" stroke-width="0.6657" stroke-miterlimit="10"/>
<path d="M1119.56 77.1133C1119.56 66.5958 1110.98 58.0156 1100.46 58.0156C1089.95 58.0156 1081.37 66.5958 1081.37 77.1133V96.2108H1100.46C1110.98 96.2108 1119.56 87.6308 1119.56 77.1133Z" stroke="#A1C517" stroke-width="0.6657" stroke-miterlimit="10"/>
<path d="M967.611 191.146C967.611 201.664 976.191 210.244 986.709 210.244C997.226 210.244 1005.81 201.664 1005.81 191.146V172.049H986.709C975.915 172.049 967.611 180.352 967.611 191.146Z" stroke="#A1C517" stroke-width="0.6657" stroke-miterlimit="10"/>
<path d="M1100.46 172.049H1081.37V191.146C1081.37 201.664 1089.95 210.244 1100.46 210.244C1110.98 210.244 1119.56 201.664 1119.56 191.146C1119.56 180.629 1110.98 172.049 1100.46 172.049Z" stroke="#A1C517" stroke-width="0.6657" stroke-miterlimit="10"/>
<path d="M986.434 96.2108H1005.53V77.1133C1005.53 66.5958 996.951 58.0156 986.434 58.0156C975.916 58.0156 967.336 66.5958 967.336 77.1133C967.336 87.6308 975.916 96.2108 986.434 96.2108Z" stroke="#A1C517" stroke-width="0.6657" stroke-miterlimit="10"/>
<path d="M1280.65 77.1137C1280.65 63.8284 1269.85 52.7572 1256.29 52.7572H1228.89V25.3564C1228.89 12.0711 1218.1 1 1204.53 1C1191.25 1 1180.18 11.7943 1180.18 25.3564V52.7572H1152.78C1139.49 52.7572 1128.42 63.5516 1128.42 77.1137C1128.42 90.399 1139.21 101.47 1152.78 101.47H1180.18V128.871C1180.18 142.156 1190.97 153.227 1204.53 153.227C1217.82 153.227 1228.89 142.433 1228.89 128.871V101.47H1256.29C1269.58 101.47 1280.65 90.6757 1280.65 77.1137ZM1216.44 77.1137C1216.44 83.7563 1211.18 89.015 1204.53 89.015C1197.89 89.015 1192.63 83.7563 1192.63 77.1137C1192.63 70.471 1197.89 65.2121 1204.53 65.2121C1211.18 65.2121 1216.44 70.7478 1216.44 77.1137Z" stroke="#A1C517" stroke-width="0.6657" stroke-miterlimit="10"/>
<path d="M1280.64 20.375C1280.64 9.85749 1272.06 1.27734 1261.55 1.27734C1251.03 1.27734 1242.45 9.85749 1242.45 20.375V39.4725H1261.55C1272.06 39.4725 1280.64 30.8925 1280.64 20.375Z" stroke="#A1C517" stroke-width="0.6657" stroke-miterlimit="10"/>
<path d="M1128.7 134.129C1128.7 144.646 1137.28 153.227 1147.79 153.227C1158.31 153.227 1166.89 144.646 1166.89 134.129V115.031H1147.79C1137.28 115.031 1128.7 123.611 1128.7 134.129Z" stroke="#A1C517" stroke-width="0.6657" stroke-miterlimit="10"/>
<path d="M1261.55 115.031H1242.45V134.129C1242.45 144.646 1251.03 153.227 1261.55 153.227C1272.06 153.227 1280.64 144.646 1280.64 134.129C1280.64 123.611 1272.06 115.031 1261.55 115.031Z" stroke="#A1C517" stroke-width="0.6657" stroke-miterlimit="10"/>
<path d="M1147.79 39.4725H1166.89V20.375C1166.89 9.85749 1158.31 1.27734 1147.79 1.27734C1137.28 1.27734 1128.7 9.85749 1128.7 20.375C1128.7 30.8925 1137.28 39.4725 1147.79 39.4725Z" stroke="#A1C517" stroke-width="0.6657" stroke-miterlimit="10"/>
<path d="M1438.68 134.129C1438.68 120.844 1427.89 109.773 1414.33 109.773H1386.93V82.3719C1386.93 69.0867 1376.13 58.0156 1362.57 58.0156C1349.29 58.0156 1338.21 68.8099 1338.21 82.3719V109.773H1310.81C1297.53 109.773 1286.46 120.567 1286.46 134.129C1286.46 147.414 1297.25 158.486 1310.81 158.486H1338.21V185.886C1338.21 199.172 1349.01 210.243 1362.57 210.243C1375.86 210.243 1386.93 199.449 1386.93 185.886V158.486H1414.33C1427.89 158.486 1438.68 147.414 1438.68 134.129ZM1374.47 134.129C1374.47 140.772 1369.21 146.031 1362.57 146.031C1355.93 146.031 1350.67 140.772 1350.67 134.129C1350.67 127.487 1355.93 122.228 1362.57 122.228C1369.21 122.228 1374.47 127.487 1374.47 134.129Z" stroke="#A1C517" stroke-width="0.6657" stroke-miterlimit="10"/>
<path d="M1438.69 77.1133C1438.69 66.5958 1430.11 58.0156 1419.59 58.0156C1409.07 58.0156 1400.49 66.5958 1400.49 77.1133V96.2108H1419.59C1430.11 96.2108 1438.69 87.6308 1438.69 77.1133Z" stroke="#A1C517" stroke-width="0.6657" stroke-miterlimit="10"/>
<path d="M1286.73 191.146C1286.73 201.664 1295.31 210.244 1305.83 210.244C1316.35 210.244 1324.93 201.664 1324.93 191.146V172.049H1305.83C1295.31 172.049 1286.73 180.352 1286.73 191.146Z" stroke="#A1C517" stroke-width="0.6657" stroke-miterlimit="10"/>
<path d="M1419.59 172.049H1400.49V191.146C1400.49 201.664 1409.07 210.244 1419.59 210.244C1430.11 210.244 1438.69 201.664 1438.69 191.146C1438.69 180.629 1430.11 172.049 1419.59 172.049Z" stroke="#A1C517" stroke-width="0.6657" stroke-miterlimit="10"/>
<path d="M1305.83 96.2108H1324.93V77.1133C1324.93 66.5958 1316.35 58.0156 1305.83 58.0156C1295.31 58.0156 1286.73 66.5958 1286.73 77.1133C1286.73 87.6308 1295.31 96.2108 1305.83 96.2108Z" stroke="#A1C517" stroke-width="0.6657" stroke-miterlimit="10"/>
<path d="M1599.77 77.1137C1599.77 63.8284 1588.98 52.7572 1575.41 52.7572H1548.01V25.3564C1548.01 12.0711 1537.22 1 1523.66 1C1510.09 1 1499.3 11.7943 1499.3 25.3564V52.7572H1471.9C1458.61 52.7572 1447.54 63.5516 1447.54 77.1137C1447.54 90.399 1458.34 101.47 1471.9 101.47H1499.3V128.871C1499.3 142.156 1510.09 153.227 1523.66 153.227C1537.22 153.227 1548.01 142.433 1548.01 128.871V101.47H1575.41C1588.98 101.47 1599.77 90.6757 1599.77 77.1137ZM1535.83 77.1137C1535.83 83.7563 1530.58 89.015 1523.93 89.015C1517.29 89.015 1512.03 83.7563 1512.03 77.1137C1512.03 70.471 1517.29 65.2121 1523.93 65.2121C1530.58 65.2121 1535.83 70.7478 1535.83 77.1137Z" stroke="#A1C517" stroke-width="0.6657" stroke-miterlimit="10"/>
<path d="M1599.77 20.375C1599.77 9.85749 1591.19 1.27734 1580.67 1.27734C1570.15 1.27734 1561.57 9.85749 1561.57 20.375V39.4725H1580.67C1591.19 39.4725 1599.77 30.8925 1599.77 20.375Z" stroke="#A1C517" stroke-width="0.6657" stroke-miterlimit="10"/>
<path d="M1447.82 134.129C1447.82 144.646 1456.4 153.227 1466.92 153.227C1477.44 153.227 1486.02 144.646 1486.02 134.129V115.031H1466.92C1456.4 115.031 1447.82 123.611 1447.82 134.129Z" stroke="#A1C517" stroke-width="0.6657" stroke-miterlimit="10"/>
<path d="M1580.67 115.031H1561.57V134.129C1561.57 144.646 1570.15 153.227 1580.67 153.227C1591.19 153.227 1599.77 144.646 1599.77 134.129C1599.77 123.611 1591.19 115.031 1580.67 115.031Z" stroke="#A1C517" stroke-width="0.6657" stroke-miterlimit="10"/>
<path d="M1466.92 39.4725H1486.02V20.375C1486.02 9.85749 1477.44 1.27734 1466.92 1.27734C1456.4 1.27734 1447.82 9.85749 1447.82 20.375C1447.82 30.8925 1456.4 39.4725 1466.92 39.4725Z" stroke="#A1C517" stroke-width="0.6657" stroke-miterlimit="10"/>
<path d="M1758.91 134.129C1758.91 120.844 1748.12 109.773 1734.56 109.773H1707.16V82.3719C1707.16 69.0867 1696.36 58.0156 1682.8 58.0156C1669.52 58.0156 1658.44 68.8099 1658.44 82.3719V109.773H1631.04C1617.76 109.773 1606.69 120.567 1606.69 134.129C1606.69 147.414 1617.48 158.486 1631.04 158.486H1658.44V185.886C1658.44 199.172 1669.24 210.243 1682.8 210.243C1696.09 210.243 1707.16 199.449 1707.16 185.886V158.486H1734.56C1748.12 158.486 1758.91 147.414 1758.91 134.129ZM1694.7 134.129C1694.7 140.772 1689.44 146.031 1682.8 146.031C1676.16 146.031 1670.9 140.772 1670.9 134.129C1670.9 127.487 1676.16 122.228 1682.8 122.228C1689.44 122.228 1694.7 127.487 1694.7 134.129Z" stroke="#A1C517" stroke-width="0.6657" stroke-miterlimit="10"/>
<path d="M1758.92 77.1133C1758.92 66.5958 1750.34 58.0156 1739.82 58.0156C1729.3 58.0156 1720.72 66.5958 1720.72 77.1133V96.2108H1739.82C1750.34 96.2108 1758.92 87.6308 1758.92 77.1133Z" stroke="#A1C517" stroke-width="0.6657" stroke-miterlimit="10"/>
<path d="M1606.96 191.146C1606.96 201.664 1615.54 210.244 1626.06 210.244C1636.58 210.244 1645.16 201.664 1645.16 191.146V172.049H1626.06C1615.54 172.049 1606.96 180.352 1606.96 191.146Z" stroke="#A1C517" stroke-width="0.6657" stroke-miterlimit="10"/>
<path d="M1739.82 172.049H1720.72V191.146C1720.72 201.664 1729.3 210.244 1739.82 210.244C1750.34 210.244 1758.92 201.664 1758.92 191.146C1758.92 180.629 1750.34 172.049 1739.82 172.049Z" stroke="#A1C517" stroke-width="0.6657" stroke-miterlimit="10"/>
<path d="M1626.06 96.2108H1645.16V77.1133C1645.16 66.5958 1636.58 58.0156 1626.06 58.0156C1615.54 58.0156 1606.96 66.5958 1606.96 77.1133C1606.96 87.6308 1615.54 96.2108 1626.06 96.2108Z" stroke="#A1C517" stroke-width="0.6657" stroke-miterlimit="10"/>
<path d="M1920 77.1137C1920 63.8284 1909.21 52.7572 1895.64 52.7572H1868.24V25.3564C1868.24 12.0711 1857.45 1 1843.89 1C1830.6 1 1819.53 11.7943 1819.53 25.3564V52.7572H1792.13C1778.84 52.7572 1767.77 63.5516 1767.77 77.1137C1767.77 90.399 1778.57 101.47 1792.13 101.47H1819.53V128.871C1819.53 142.156 1830.32 153.227 1843.89 153.227C1857.17 153.227 1868.24 142.433 1868.24 128.871V101.47H1895.64C1909.21 101.47 1920 90.6757 1920 77.1137ZM1856.07 77.1137C1856.07 83.7563 1850.81 89.015 1844.16 89.015C1837.52 89.015 1832.26 83.7563 1832.26 77.1137C1832.26 70.471 1837.52 65.2121 1844.16 65.2121C1850.81 65.2121 1856.07 70.7478 1856.07 77.1137Z" stroke="#A1C517" stroke-width="0.6657" stroke-miterlimit="10"/>
<path d="M1920 20.375C1920 9.85749 1911.42 1.27734 1900.9 1.27734C1890.38 1.27734 1881.8 9.85749 1881.8 20.375V39.4725H1900.9C1911.42 39.4725 1920 30.8925 1920 20.375Z" stroke="#A1C517" stroke-width="0.6657" stroke-miterlimit="10"/>
<path d="M1768.05 134.129C1768.05 144.646 1776.63 153.227 1787.15 153.227C1797.66 153.227 1806.24 144.646 1806.24 134.129V115.031H1787.15C1776.63 115.031 1768.05 123.611 1768.05 134.129Z" stroke="#A1C517" stroke-width="0.6657" stroke-miterlimit="10"/>
<path d="M1900.9 115.031H1881.8V134.129C1881.8 144.646 1890.38 153.227 1900.9 153.227C1911.42 153.227 1920 144.646 1920 134.129C1920 123.611 1911.42 115.031 1900.9 115.031Z" stroke="#A1C517" stroke-width="0.6657" stroke-miterlimit="10"/>
<path d="M1787.15 39.4725H1806.24V20.375C1806.24 9.85749 1797.66 1.27734 1787.15 1.27734C1776.63 1.27734 1768.05 9.85749 1768.05 20.375C1768.05 30.8925 1776.63 39.4725 1787.15 39.4725Z" stroke="#A1C517" stroke-width="0.6657" stroke-miterlimit="10"/>
<path d="M152.227 304.901C152.227 291.615 141.433 280.544 127.871 280.544H100.47V253.143C100.47 239.858 89.6756 228.787 76.1136 228.787C62.8283 228.787 51.7573 239.581 51.7573 253.143V280.544H24.3563C11.071 280.544 0 291.339 0 304.901C0 318.186 10.7943 329.257 24.3563 329.257H51.7573V356.658C51.7573 369.943 62.5515 381.014 76.1136 381.014C89.3989 381.014 100.47 370.22 100.47 356.658V329.257H127.871C141.433 328.98 152.227 318.186 152.227 304.901ZM88.2918 304.901C88.2918 311.543 83.0329 316.802 76.3903 316.802C69.7477 316.802 64.4889 311.543 64.4889 304.901C64.4889 298.258 69.7477 292.999 76.3903 292.999C82.7562 292.999 88.2918 298.258 88.2918 304.901Z" stroke="#A1C517" stroke-width="0.6657" stroke-miterlimit="10"/>
<path d="M152.226 247.885C152.226 237.367 143.646 228.787 133.129 228.787C122.611 228.787 114.031 237.367 114.031 247.885V266.982H133.129C143.646 266.982 152.226 258.402 152.226 247.885Z" stroke="#A1C517" stroke-width="0.6657" stroke-miterlimit="10"/>
<path d="M0.277344 361.641C0.277344 372.158 8.85749 380.738 19.375 380.738C29.8925 380.738 38.4727 372.158 38.4727 361.641V342.543H19.375C8.85749 342.543 0.277344 351.123 0.277344 361.641Z" stroke="#A1C517" stroke-width="0.6657" stroke-miterlimit="10"/>
<path d="M133.129 342.543H114.031V361.641C114.031 372.158 122.611 380.738 133.129 380.738C143.646 380.738 152.226 372.158 152.226 361.641C152.226 351.123 143.646 342.543 133.129 342.543Z" stroke="#A1C517" stroke-width="0.6657" stroke-miterlimit="10"/>
<path d="M19.375 266.982H38.4727V247.885C38.4727 237.367 29.8925 228.787 19.375 228.787C8.85749 228.787 0.277344 237.367 0.277344 247.885C0.277344 258.402 8.85749 266.982 19.375 266.982Z" stroke="#A1C517" stroke-width="0.6657" stroke-miterlimit="10"/>
<path d="M313.311 247.885C313.311 234.6 302.517 223.529 288.955 223.529H261.554V196.128C261.554 182.843 250.76 171.771 237.198 171.771C223.912 171.771 212.841 182.566 212.841 196.128V223.529H185.44C172.155 223.529 161.084 234.323 161.084 247.885C161.084 261.17 171.878 272.242 185.44 272.242H212.841V299.642C212.841 312.928 223.636 323.999 237.198 323.999C250.483 323.999 261.554 313.204 261.554 299.642V272.242H288.955C302.517 272.242 313.311 261.447 313.311 247.885ZM249.376 247.885C249.376 254.528 244.117 259.787 237.474 259.787C230.832 259.787 225.573 254.528 225.573 247.885C225.573 241.242 230.832 235.984 237.474 235.984C244.117 235.984 249.376 241.242 249.376 247.885Z" stroke="#A1C517" stroke-width="0.6657" stroke-miterlimit="10"/>
<path d="M313.312 191.146C313.312 180.629 304.732 172.049 294.215 172.049C283.697 172.049 275.117 180.629 275.117 191.146V210.244H294.215C304.732 209.967 313.312 201.664 313.312 191.146Z" stroke="#A1C517" stroke-width="0.6657" stroke-miterlimit="10"/>
<path d="M161.361 304.9C161.361 315.418 169.941 323.998 180.459 323.998C190.976 323.998 199.556 315.418 199.556 304.9V285.803H180.459C169.941 285.803 161.361 294.383 161.361 304.9Z" stroke="#A1C517" stroke-width="0.6657" stroke-miterlimit="10"/>
<path d="M294.215 285.803H275.117V304.9C275.117 315.418 283.697 323.998 294.215 323.998C304.732 323.998 313.312 315.418 313.312 304.9C313.312 294.383 304.732 285.803 294.215 285.803Z" stroke="#A1C517" stroke-width="0.6657" stroke-miterlimit="10"/>
<path d="M180.459 209.967H199.556V190.869C199.556 180.352 190.976 171.771 180.459 171.771C169.941 171.771 161.361 180.352 161.361 190.869C161.361 201.387 169.941 209.967 180.459 209.967Z" stroke="#A1C517" stroke-width="0.6657" stroke-miterlimit="10"/>
<path d="M471.352 304.901C471.352 291.615 460.558 280.544 446.996 280.544H419.595V253.143C419.595 239.858 408.801 228.787 395.239 228.787C381.953 228.787 370.882 239.581 370.882 253.143V280.544H343.481C330.196 280.544 319.125 291.339 319.125 304.901C319.125 318.186 329.919 329.257 343.481 329.257H370.882V356.658C370.882 369.943 381.677 381.014 395.239 381.014C408.524 381.014 419.595 370.22 419.595 356.658V329.257H446.996C460.558 328.98 471.352 318.186 471.352 304.901ZM407.417 304.901C407.417 311.543 402.158 316.802 395.515 316.802C388.873 316.802 383.614 311.543 383.614 304.901C383.614 298.258 388.873 292.999 395.515 292.999C402.158 292.999 407.417 298.258 407.417 304.901Z" stroke="#A1C517" stroke-width="0.6657" stroke-miterlimit="10"/>
<path d="M471.352 247.885C471.352 237.367 462.771 228.787 452.254 228.787C441.736 228.787 433.156 237.367 433.156 247.885V266.982H452.254C463.048 266.982 471.352 258.402 471.352 247.885Z" stroke="#A1C517" stroke-width="0.6657" stroke-miterlimit="10"/>
<path d="M319.4 361.641C319.4 372.158 327.98 380.738 338.498 380.738C349.015 380.738 357.596 372.158 357.596 361.641V342.543H338.498C327.98 342.543 319.4 351.123 319.4 361.641Z" stroke="#A1C517" stroke-width="0.6657" stroke-miterlimit="10"/>
<path d="M452.531 342.543H433.434V361.641C433.434 372.158 442.014 380.738 452.531 380.738C463.049 380.738 471.629 372.158 471.629 361.641C471.352 351.123 463.049 342.543 452.531 342.543Z" stroke="#A1C517" stroke-width="0.6657" stroke-miterlimit="10"/>
<path d="M338.498 266.982H357.596V247.885C357.596 237.367 349.015 228.787 338.498 228.787C327.98 228.787 319.4 237.367 319.4 247.885C319.4 258.402 327.98 266.982 338.498 266.982Z" stroke="#A1C517" stroke-width="0.6657" stroke-miterlimit="10"/>
<path d="M632.712 247.885C632.712 234.6 621.917 223.529 608.355 223.529H580.954V196.128C580.954 182.843 570.16 171.771 556.598 171.771C543.313 171.771 532.242 182.566 532.242 196.128V223.529H504.841C491.556 223.529 480.484 234.323 480.484 247.885C480.484 261.17 491.279 272.242 504.841 272.242H532.242V299.642C532.242 312.928 543.036 323.999 556.598 323.999C569.883 323.999 580.954 313.204 580.954 299.642V272.242H608.355C621.641 272.242 632.712 261.447 632.712 247.885ZM568.499 247.885C568.499 254.528 563.241 259.787 556.598 259.787C549.955 259.787 544.697 254.528 544.697 247.885C544.697 241.242 549.955 235.984 556.598 235.984C563.241 235.984 568.499 241.242 568.499 247.885Z" stroke="#A1C517" stroke-width="0.6657" stroke-miterlimit="10"/>
<path d="M632.711 191.146C632.711 180.629 624.13 172.049 613.613 172.049C603.095 172.049 594.516 180.629 594.516 191.146V210.244H613.613C624.13 209.967 632.711 201.664 632.711 191.146Z" stroke="#A1C517" stroke-width="0.6657" stroke-miterlimit="10"/>
<path d="M480.762 304.9C480.762 315.418 489.342 323.998 499.859 323.998C510.377 323.998 518.957 315.418 518.957 304.9V285.803H499.859C489.065 285.803 480.762 294.383 480.762 304.9Z" stroke="#A1C517" stroke-width="0.6657" stroke-miterlimit="10"/>
<path d="M613.613 285.803H594.516V304.9C594.516 315.418 603.095 323.998 613.613 323.998C624.13 323.998 632.711 315.418 632.711 304.9C632.711 294.383 624.13 285.803 613.613 285.803Z" stroke="#A1C517" stroke-width="0.6657" stroke-miterlimit="10"/>
<path d="M499.859 209.967H518.957V190.869C518.957 180.352 510.377 171.771 499.859 171.771C489.342 171.771 480.762 180.352 480.762 190.869C480.762 201.387 489.065 209.967 499.859 209.967Z" stroke="#A1C517" stroke-width="0.6657" stroke-miterlimit="10"/>
<path d="M791.858 304.901C791.858 291.615 781.064 280.544 767.502 280.544H740.101V253.143C740.101 239.858 729.307 228.787 715.744 228.787C702.459 228.787 691.388 239.581 691.388 253.143V280.544H663.987C650.702 280.544 639.631 291.339 639.631 304.901C639.631 318.186 650.425 329.257 663.987 329.257H691.388V356.658C691.388 369.943 702.182 381.014 715.744 381.014C729.03 381.014 740.101 370.22 740.101 356.658V329.257H767.502C780.787 328.98 791.858 318.186 791.858 304.901ZM727.646 304.901C727.646 311.543 722.387 316.802 715.744 316.802C709.102 316.802 703.843 311.543 703.843 304.901C703.843 298.258 709.102 292.999 715.744 292.999C722.387 292.999 727.646 298.258 727.646 304.901Z" stroke="#A1C517" stroke-width="0.6657" stroke-miterlimit="10"/>
<path d="M791.859 247.885C791.859 237.367 783.279 228.787 772.761 228.787C762.244 228.787 753.664 237.367 753.664 247.885V266.982H772.761C783.279 266.982 791.859 258.402 791.859 247.885Z" stroke="#A1C517" stroke-width="0.6657" stroke-miterlimit="10"/>
<path d="M639.631 361.641C639.631 372.158 648.211 380.738 658.729 380.738C669.246 380.738 677.826 372.158 677.826 361.641V342.543H658.729C648.211 342.543 639.631 351.123 639.631 361.641Z" stroke="#A1C517" stroke-width="0.6657" stroke-miterlimit="10"/>
<path d="M772.759 342.543H753.662V361.641C753.662 372.158 762.242 380.738 772.759 380.738C783.277 380.738 791.857 372.158 791.857 361.641C791.857 351.123 783.277 342.543 772.759 342.543Z" stroke="#A1C517" stroke-width="0.6657" stroke-miterlimit="10"/>
<path d="M658.729 266.982H677.826V247.885C677.826 237.367 669.246 228.787 658.729 228.787C648.211 228.787 639.631 237.367 639.631 247.885C639.631 258.402 648.211 266.982 658.729 266.982Z" stroke="#A1C517" stroke-width="0.6657" stroke-miterlimit="10"/>
<path d="M952.942 247.885C952.942 234.6 942.148 223.529 928.586 223.529H901.185V196.128C901.185 182.843 890.391 171.771 876.829 171.771C863.267 171.771 852.472 182.566 852.472 196.128V223.529H825.071C811.786 223.529 800.715 234.323 800.715 247.885C800.715 261.17 811.509 272.242 825.071 272.242H852.472V299.642C852.472 312.928 863.267 323.999 876.829 323.999C890.391 323.999 901.185 313.204 901.185 299.642V272.242H928.586C941.871 272.242 952.942 261.447 952.942 247.885ZM888.73 247.885C888.73 254.528 883.471 259.787 876.829 259.787C870.186 259.787 864.927 254.528 864.927 247.885C864.927 241.242 870.186 235.984 876.829 235.984C883.471 235.984 888.73 241.242 888.73 247.885Z" stroke="#A1C517" stroke-width="0.6657" stroke-miterlimit="10"/>
<path d="M952.941 191.146C952.941 180.629 944.361 172.049 933.844 172.049C923.326 172.049 914.746 180.629 914.746 191.146V210.244H933.844C944.361 209.967 952.941 201.664 952.941 191.146Z" stroke="#A1C517" stroke-width="0.6657" stroke-miterlimit="10"/>
<path d="M800.992 304.9C800.992 315.418 809.572 323.998 820.09 323.998C830.607 323.998 839.187 315.418 839.187 304.9V285.803H820.09C809.572 285.803 800.992 294.383 800.992 304.9Z" stroke="#A1C517" stroke-width="0.6657" stroke-miterlimit="10"/>
<path d="M933.844 285.803H914.746V304.9C914.746 315.418 923.326 323.998 933.844 323.998C944.361 323.998 952.941 315.418 952.941 304.9C952.941 294.383 944.361 285.803 933.844 285.803Z" stroke="#A1C517" stroke-width="0.6657" stroke-miterlimit="10"/>
<path d="M820.09 209.967H839.187V190.869C839.187 180.352 830.607 171.771 820.09 171.771C809.572 171.771 800.992 180.352 800.992 190.869C800.992 201.387 809.572 209.967 820.09 209.967Z" stroke="#A1C517" stroke-width="0.6657" stroke-miterlimit="10"/>
<path d="M1119.56 304.901C1119.56 291.615 1108.77 280.544 1095.21 280.544H1067.81V253.143C1067.81 239.858 1057.01 228.787 1043.45 228.787C1029.89 228.787 1019.09 239.581 1019.09 253.143V280.544H991.692C978.407 280.544 967.336 291.339 967.336 304.901C967.336 318.186 978.13 329.257 991.692 329.257H1019.09V356.658C1019.09 369.943 1029.89 381.014 1043.45 381.014C1057.01 381.014 1067.81 370.22 1067.81 356.658V329.257H1095.21C1108.49 328.98 1119.56 318.186 1119.56 304.901ZM1055.35 304.901C1055.35 311.543 1050.09 316.802 1043.45 316.802C1036.81 316.802 1031.55 311.543 1031.55 304.901C1031.55 298.258 1036.81 292.999 1043.45 292.999C1050.09 292.999 1055.35 298.258 1055.35 304.901Z" stroke="#A1C517" stroke-width="0.6657" stroke-miterlimit="10"/>
<path d="M1119.56 247.885C1119.56 237.367 1110.98 228.787 1100.46 228.787C1089.95 228.787 1081.37 237.367 1081.37 247.885V266.982H1100.46C1110.98 266.982 1119.56 258.402 1119.56 247.885Z" stroke="#A1C517" stroke-width="0.6657" stroke-miterlimit="10"/>
<path d="M967.611 361.641C967.611 372.158 976.191 380.738 986.709 380.738C997.226 380.738 1005.81 372.158 1005.81 361.641V342.543H986.709C975.915 342.543 967.611 351.123 967.611 361.641Z" stroke="#A1C517" stroke-width="0.6657" stroke-miterlimit="10"/>
<path d="M1100.46 342.543H1081.37V361.641C1081.37 372.158 1089.95 380.738 1100.46 380.738C1110.98 380.738 1119.56 372.158 1119.56 361.641C1119.56 351.123 1110.98 342.543 1100.46 342.543Z" stroke="#A1C517" stroke-width="0.6657" stroke-miterlimit="10"/>
<path d="M986.434 266.982H1005.53V247.885C1005.53 237.367 996.951 228.787 986.434 228.787C975.916 228.787 967.336 237.367 967.336 247.885C967.613 258.402 975.916 266.982 986.434 266.982Z" stroke="#A1C517" stroke-width="0.6657" stroke-miterlimit="10"/>
<path d="M1280.65 247.885C1280.65 234.6 1269.85 223.529 1256.29 223.529H1228.89V196.128C1228.89 182.843 1218.1 171.771 1204.53 171.771C1191.25 171.771 1180.18 182.566 1180.18 196.128V223.529H1152.78C1139.49 223.529 1128.42 234.323 1128.42 247.885C1128.42 261.17 1139.21 272.242 1152.78 272.242H1180.18V299.642C1180.18 312.928 1190.97 323.999 1204.53 323.999C1217.82 323.999 1228.89 313.204 1228.89 299.642V272.242H1256.29C1269.58 272.242 1280.65 261.447 1280.65 247.885ZM1216.44 247.885C1216.44 254.528 1211.18 259.787 1204.53 259.787C1197.89 259.787 1192.63 254.528 1192.63 247.885C1192.63 241.242 1197.89 235.984 1204.53 235.984C1211.18 235.984 1216.44 241.242 1216.44 247.885Z" stroke="#A1C517" stroke-width="0.6657" stroke-miterlimit="10"/>
<path d="M1280.64 191.146C1280.64 180.629 1272.06 172.049 1261.55 172.049C1251.03 172.049 1242.45 180.629 1242.45 191.146V210.244H1261.55C1272.06 209.967 1280.64 201.664 1280.64 191.146Z" stroke="#A1C517" stroke-width="0.6657" stroke-miterlimit="10"/>
<path d="M1128.7 304.9C1128.7 315.418 1137.28 323.998 1147.79 323.998C1158.31 323.998 1166.89 315.418 1166.89 304.9V285.803H1147.79C1137.28 285.803 1128.7 294.383 1128.7 304.9Z" stroke="#A1C517" stroke-width="0.6657" stroke-miterlimit="10"/>
<path d="M1261.55 285.803H1242.45V304.9C1242.45 315.418 1251.03 323.998 1261.55 323.998C1272.06 323.998 1280.64 315.418 1280.64 304.9C1280.64 294.383 1272.06 285.803 1261.55 285.803Z" stroke="#A1C517" stroke-width="0.6657" stroke-miterlimit="10"/>
<path d="M1147.79 209.967H1166.89V190.869C1166.89 180.352 1158.31 171.771 1147.79 171.771C1137.28 171.771 1128.7 180.352 1128.7 190.869C1128.7 201.387 1137.28 209.967 1147.79 209.967Z" stroke="#A1C517" stroke-width="0.6657" stroke-miterlimit="10"/>
<path d="M1438.68 304.901C1438.68 291.615 1427.89 280.544 1414.33 280.544H1386.93V253.143C1386.93 239.858 1376.13 228.787 1362.57 228.787C1349.29 228.787 1338.21 239.581 1338.21 253.143V280.544H1310.81C1297.53 280.544 1286.46 291.339 1286.46 304.901C1286.46 318.186 1297.25 329.257 1310.81 329.257H1338.21V356.658C1338.21 369.943 1349.01 381.014 1362.57 381.014C1375.86 381.014 1386.93 370.22 1386.93 356.658V329.257H1414.33C1427.89 328.98 1438.68 318.186 1438.68 304.901ZM1374.47 304.901C1374.47 311.543 1369.21 316.802 1362.57 316.802C1355.93 316.802 1350.67 311.543 1350.67 304.901C1350.67 298.258 1355.93 292.999 1362.57 292.999C1369.21 292.999 1374.47 298.258 1374.47 304.901Z" stroke="#A1C517" stroke-width="0.6657" stroke-miterlimit="10"/>
<path d="M1438.69 247.885C1438.69 237.367 1430.11 228.787 1419.59 228.787C1409.07 228.787 1400.49 237.367 1400.49 247.885V266.982H1419.59C1430.11 266.982 1438.69 258.402 1438.69 247.885Z" stroke="#A1C517" stroke-width="0.6657" stroke-miterlimit="10"/>
<path d="M1286.73 361.641C1286.73 372.158 1295.31 380.738 1305.83 380.738C1316.35 380.738 1324.93 372.158 1324.93 361.641V342.543H1305.83C1295.31 342.543 1286.73 351.123 1286.73 361.641Z" stroke="#A1C517" stroke-width="0.6657" stroke-miterlimit="10"/>
<path d="M1419.59 342.543H1400.49V361.641C1400.49 372.158 1409.07 380.738 1419.59 380.738C1430.11 380.738 1438.69 372.158 1438.69 361.641C1438.69 351.123 1430.11 342.543 1419.59 342.543Z" stroke="#A1C517" stroke-width="0.6657" stroke-miterlimit="10"/>
<path d="M1305.83 266.982H1324.93V247.885C1324.93 237.367 1316.35 228.787 1305.83 228.787C1295.31 228.787 1286.73 237.367 1286.73 247.885C1286.73 258.402 1295.31 266.982 1305.83 266.982Z" stroke="#A1C517" stroke-width="0.6657" stroke-miterlimit="10"/>
<path d="M1599.77 247.885C1599.77 234.6 1588.98 223.529 1575.41 223.529H1548.01V196.128C1548.01 182.843 1537.22 171.771 1523.66 171.771C1510.09 171.771 1499.3 182.566 1499.3 196.128V223.529H1471.9C1458.61 223.529 1447.54 234.323 1447.54 247.885C1447.54 261.17 1458.34 272.242 1471.9 272.242H1499.3V299.642C1499.3 312.928 1510.09 323.999 1523.66 323.999C1537.22 323.999 1548.01 313.204 1548.01 299.642V272.242H1575.41C1588.98 272.242 1599.77 261.447 1599.77 247.885ZM1535.83 247.885C1535.83 254.528 1530.58 259.787 1523.93 259.787C1517.29 259.787 1512.03 254.528 1512.03 247.885C1512.03 241.242 1517.29 235.984 1523.93 235.984C1530.58 235.984 1535.83 241.242 1535.83 247.885Z" stroke="#A1C517" stroke-width="0.6657" stroke-miterlimit="10"/>
<path d="M1599.77 191.146C1599.77 180.629 1591.19 172.049 1580.67 172.049C1570.15 172.049 1561.57 180.629 1561.57 191.146V210.244H1580.67C1591.19 209.967 1599.77 201.664 1599.77 191.146Z" stroke="#A1C517" stroke-width="0.6657" stroke-miterlimit="10"/>
<path d="M1447.82 304.9C1447.82 315.418 1456.4 323.998 1466.92 323.998C1477.44 323.998 1486.02 315.418 1486.02 304.9V285.803H1466.92C1456.4 285.803 1447.82 294.383 1447.82 304.9Z" stroke="#A1C517" stroke-width="0.6657" stroke-miterlimit="10"/>
<path d="M1580.67 285.803H1561.57V304.9C1561.57 315.418 1570.15 323.998 1580.67 323.998C1591.19 323.998 1599.77 315.418 1599.77 304.9C1599.77 294.383 1591.19 285.803 1580.67 285.803Z" stroke="#A1C517" stroke-width="0.6657" stroke-miterlimit="10"/>
<path d="M1466.92 209.967H1486.02V190.869C1486.02 180.352 1477.44 171.771 1466.92 171.771C1456.4 171.771 1447.82 180.352 1447.82 190.869C1447.82 201.387 1456.4 209.967 1466.92 209.967Z" stroke="#A1C517" stroke-width="0.6657" stroke-miterlimit="10"/>
<path d="M1758.91 304.901C1758.91 291.615 1748.12 280.544 1734.56 280.544H1707.16V253.143C1707.16 239.858 1696.36 228.787 1682.8 228.787C1669.52 228.787 1658.44 239.581 1658.44 253.143V280.544H1631.04C1617.76 280.544 1606.69 291.339 1606.69 304.901C1606.69 318.186 1617.48 329.257 1631.04 329.257H1658.44V356.658C1658.44 369.943 1669.24 381.014 1682.8 381.014C1696.09 381.014 1707.16 370.22 1707.16 356.658V329.257H1734.56C1748.12 328.98 1758.91 318.186 1758.91 304.901ZM1694.7 304.901C1694.7 311.543 1689.44 316.802 1682.8 316.802C1676.16 316.802 1670.9 311.543 1670.9 304.901C1670.9 298.258 1676.16 292.999 1682.8 292.999C1689.44 292.999 1694.7 298.258 1694.7 304.901Z" stroke="#A1C517" stroke-width="0.6657" stroke-miterlimit="10"/>
<path d="M1758.92 247.885C1758.92 237.367 1750.34 228.787 1739.82 228.787C1729.3 228.787 1720.72 237.367 1720.72 247.885V266.982H1739.82C1750.34 266.982 1758.92 258.402 1758.92 247.885Z" stroke="#A1C517" stroke-width="0.6657" stroke-miterlimit="10"/>
<path d="M1606.96 361.641C1606.96 372.158 1615.54 380.738 1626.06 380.738C1636.58 380.738 1645.16 372.158 1645.16 361.641V342.543H1626.06C1615.54 342.543 1606.96 351.123 1606.96 361.641Z" stroke="#A1C517" stroke-width="0.6657" stroke-miterlimit="10"/>
<path d="M1739.82 342.543H1720.72V361.641C1720.72 372.158 1729.3 380.738 1739.82 380.738C1750.34 380.738 1758.92 372.158 1758.92 361.641C1758.92 351.123 1750.34 342.543 1739.82 342.543Z" stroke="#A1C517" stroke-width="0.6657" stroke-miterlimit="10"/>
<path d="M1626.06 266.982H1645.16V247.885C1645.16 237.367 1636.58 228.787 1626.06 228.787C1615.54 228.787 1606.96 237.367 1606.96 247.885C1606.96 258.402 1615.54 266.982 1626.06 266.982Z" stroke="#A1C517" stroke-width="0.6657" stroke-miterlimit="10"/>
<path d="M1920 247.885C1920 234.6 1909.21 223.529 1895.64 223.529H1868.24V196.128C1868.24 182.843 1857.45 171.771 1843.89 171.771C1830.6 171.771 1819.53 182.566 1819.53 196.128V223.529H1792.13C1778.84 223.529 1767.77 234.323 1767.77 247.885C1767.77 261.17 1778.57 272.242 1792.13 272.242H1819.53V299.642C1819.53 312.928 1830.32 323.999 1843.89 323.999C1857.17 323.999 1868.24 313.204 1868.24 299.642V272.242H1895.64C1909.21 272.242 1920 261.447 1920 247.885ZM1856.07 247.885C1856.07 254.528 1850.81 259.787 1844.16 259.787C1837.52 259.787 1832.26 254.528 1832.26 247.885C1832.26 241.242 1837.52 235.984 1844.16 235.984C1850.81 235.984 1856.07 241.242 1856.07 247.885Z" stroke="#A1C517" stroke-width="0.6657" stroke-miterlimit="10"/>
<path d="M1920 191.146C1920 180.629 1911.42 172.049 1900.9 172.049C1890.38 172.049 1881.8 180.629 1881.8 191.146V210.244H1900.9C1911.42 209.967 1920 201.664 1920 191.146Z" stroke="#A1C517" stroke-width="0.6657" stroke-miterlimit="10"/>
<path d="M1768.05 304.9C1768.05 315.418 1776.63 323.998 1787.15 323.998C1797.66 323.998 1806.24 315.418 1806.24 304.9V285.803H1787.15C1776.63 285.803 1768.05 294.383 1768.05 304.9Z" stroke="#A1C517" stroke-width="0.6657" stroke-miterlimit="10"/>
<path d="M1900.9 285.803H1881.8V304.9C1881.8 315.418 1890.38 323.998 1900.9 323.998C1911.42 323.998 1920 315.418 1920 304.9C1920 294.383 1911.42 285.803 1900.9 285.803Z" stroke="#A1C517" stroke-width="0.6657" stroke-miterlimit="10"/>
<path d="M1787.15 209.967H1806.24V190.869C1806.24 180.352 1797.66 171.771 1787.15 171.771C1776.63 171.771 1768.05 180.352 1768.05 190.869C1768.05 201.387 1776.63 209.967 1787.15 209.967Z" stroke="#A1C517" stroke-width="0.6657" stroke-miterlimit="10"/>
</svg>
